<mxfile host="app.diagrams.net" modified="2023-06-02T08:47:00.709Z" agent="Mozilla/5.0 (Windows NT 10.0; Win64; x64) AppleWebKit/537.36 (KHTML, like Gecko) Chrome/113.0.0.0 Safari/537.36" etag="mrsrq2W8UKFnXt5ZjvOh" version="21.3.6" type="device">
  <diagram name="페이지-1" id="iYUqZx2dM24FFt2aRTeE">
    <mxGraphModel dx="1434" dy="764" grid="1" gridSize="10" guides="1" tooltips="1" connect="1" arrows="1" fold="1" page="1" pageScale="1" pageWidth="827" pageHeight="1169" math="0" shadow="0">
      <root>
        <mxCell id="0" />
        <mxCell id="1" parent="0" />
        <mxCell id="v9Kh4LZxZywpgh_0QBF9-1" value="&lt;font size=&quot;3&quot;&gt;모든 루프는 빠져나갈 수 있다&lt;/font&gt;" style="whiteSpace=wrap;html=1;" vertex="1" parent="1">
          <mxGeometry x="10" y="10" width="170" height="80" as="geometry" />
        </mxCell>
        <mxCell id="v9Kh4LZxZywpgh_0QBF9-7" style="edgeStyle=orthogonalEdgeStyle;rounded=0;orthogonalLoop=1;jettySize=auto;html=1;exitX=1;exitY=0.5;exitDx=0;exitDy=0;entryX=0;entryY=0.5;entryDx=0;entryDy=0;" edge="1" parent="1" source="v9Kh4LZxZywpgh_0QBF9-2" target="v9Kh4LZxZywpgh_0QBF9-5">
          <mxGeometry relative="1" as="geometry" />
        </mxCell>
        <mxCell id="v9Kh4LZxZywpgh_0QBF9-2" value="&lt;font size=&quot;3&quot;&gt;continue&lt;/font&gt;" style="whiteSpace=wrap;html=1;" vertex="1" parent="1">
          <mxGeometry x="250" y="20" width="120" height="60" as="geometry" />
        </mxCell>
        <mxCell id="v9Kh4LZxZywpgh_0QBF9-6" style="edgeStyle=orthogonalEdgeStyle;rounded=0;orthogonalLoop=1;jettySize=auto;html=1;exitX=1;exitY=0.5;exitDx=0;exitDy=0;entryX=0;entryY=0.5;entryDx=0;entryDy=0;" edge="1" parent="1" source="v9Kh4LZxZywpgh_0QBF9-3" target="v9Kh4LZxZywpgh_0QBF9-4">
          <mxGeometry relative="1" as="geometry">
            <mxPoint x="390" y="140" as="targetPoint" />
          </mxGeometry>
        </mxCell>
        <mxCell id="v9Kh4LZxZywpgh_0QBF9-3" value="&lt;font size=&quot;3&quot;&gt;break&lt;/font&gt;" style="whiteSpace=wrap;html=1;" vertex="1" parent="1">
          <mxGeometry x="250" y="110" width="120" height="60" as="geometry" />
        </mxCell>
        <mxCell id="v9Kh4LZxZywpgh_0QBF9-4" value="&lt;font size=&quot;3&quot;&gt;루프 종료&lt;/font&gt;" style="whiteSpace=wrap;html=1;" vertex="1" parent="1">
          <mxGeometry x="400" y="110" width="120" height="60" as="geometry" />
        </mxCell>
        <mxCell id="v9Kh4LZxZywpgh_0QBF9-5" value="&lt;font size=&quot;3&quot;&gt;한번 pass&lt;/font&gt;" style="whiteSpace=wrap;html=1;" vertex="1" parent="1">
          <mxGeometry x="400" y="20" width="120" height="60" as="geometry" />
        </mxCell>
        <mxCell id="v9Kh4LZxZywpgh_0QBF9-8" value="&lt;font size=&quot;3&quot;&gt;16크기 단어&lt;/font&gt;" style="rounded=1;whiteSpace=wrap;html=1;" vertex="1" parent="1">
          <mxGeometry x="35" y="115" width="120" height="60" as="geometry" />
        </mxCell>
        <mxCell id="v9Kh4LZxZywpgh_0QBF9-10" value="&lt;font size=&quot;3&quot;&gt;특정 범위를 빠져나가기 위해 사용&lt;/font&gt;" style="rounded=1;whiteSpace=wrap;html=1;" vertex="1" parent="1">
          <mxGeometry x="550" y="15" width="130" height="70" as="geometry" />
        </mxCell>
        <mxCell id="v9Kh4LZxZywpgh_0QBF9-11" value="&lt;font size=&quot;3&quot;&gt;루프를 빠져 나가기 위해 사용&lt;/font&gt;" style="rounded=1;whiteSpace=wrap;html=1;" vertex="1" parent="1">
          <mxGeometry x="550" y="105" width="130" height="70" as="geometry" />
        </mxCell>
        <mxCell id="v9Kh4LZxZywpgh_0QBF9-12" value="&lt;div style=&quot;text-align: left;&quot;&gt;&lt;span style=&quot;font-size: medium; background-color: initial;&quot;&gt;switch(케이스 분류할 값)&lt;/span&gt;&lt;/div&gt;&lt;font size=&quot;3&quot;&gt;&lt;div style=&quot;text-align: left;&quot;&gt;&lt;span style=&quot;background-color: initial;&quot;&gt;{&lt;/span&gt;&lt;/div&gt;&lt;div style=&quot;text-align: left;&quot;&gt;&lt;span style=&quot;white-space: pre;&quot;&gt;&#x9;&lt;/span&gt;case 값1: 문장; break;&lt;/div&gt;&lt;div style=&quot;text-align: left;&quot;&gt;&lt;span style=&quot;white-space: pre;&quot;&gt;&#x9;&lt;/span&gt;case 값2: 문장; break;&lt;br&gt;&lt;/div&gt;&lt;div style=&quot;text-align: left;&quot;&gt;&lt;span style=&quot;white-space: pre;&quot;&gt;&#x9;&lt;/span&gt;case ...&amp;nbsp; :&amp;nbsp; 문장;break;&lt;br&gt;&lt;/div&gt;&lt;div style=&quot;text-align: left;&quot;&gt;&lt;span style=&quot;white-space: pre;&quot;&gt;&#x9;&lt;/span&gt;default: 문장; break;&lt;br&gt;&lt;/div&gt;&lt;div style=&quot;text-align: left;&quot;&gt;&lt;span style=&quot;background-color: initial;&quot;&gt;}&lt;/span&gt;&lt;/div&gt;&lt;/font&gt;" style="rounded=1;whiteSpace=wrap;html=1;" vertex="1" parent="1">
          <mxGeometry x="240" y="190" width="280" height="190" as="geometry" />
        </mxCell>
        <mxCell id="v9Kh4LZxZywpgh_0QBF9-18" value="&lt;font size=&quot;3&quot;&gt;switch/case문&lt;br&gt;&lt;br&gt;조건문 중에 하나이다&lt;br&gt;&lt;/font&gt;" style="rounded=1;whiteSpace=wrap;html=1;" vertex="1" parent="1">
          <mxGeometry y="220" width="210" height="130" as="geometry" />
        </mxCell>
        <mxCell id="v9Kh4LZxZywpgh_0QBF9-19" value="&lt;div style=&quot;text-align: left;&quot;&gt;&lt;span style=&quot;font-size: medium; background-color: initial;&quot;&gt;for(int i = 0; i &amp;lt;= 5; i ++)&lt;/span&gt;&lt;/div&gt;&lt;font size=&quot;3&quot;&gt;&lt;div style=&quot;text-align: left;&quot;&gt;&lt;span style=&quot;background-color: initial;&quot;&gt;{&lt;/span&gt;&lt;/div&gt;&lt;div style=&quot;text-align: left;&quot;&gt;&lt;span style=&quot;background-color: initial;&quot;&gt;&lt;span style=&quot;white-space: pre;&quot;&gt;&#x9;&lt;/span&gt;// Loop scope 안에서&lt;/span&gt;&lt;/div&gt;&lt;div style=&quot;text-align: left;&quot;&gt;&lt;span style=&quot;background-color: initial;&quot;&gt;&lt;span style=&quot;white-space: pre;&quot;&gt;&#x9;&lt;/span&gt;// 반복할문장들&lt;/span&gt;&lt;/div&gt;&lt;div style=&quot;text-align: left;&quot;&gt;&lt;span style=&quot;background-color: initial;&quot;&gt;}&amp;nbsp;&lt;/span&gt;&lt;/div&gt;&lt;br&gt;반복문 중에 하나이다&lt;br&gt;&lt;/font&gt;" style="rounded=1;whiteSpace=wrap;html=1;" vertex="1" parent="1">
          <mxGeometry x="85" y="480" width="340" height="205" as="geometry" />
        </mxCell>
        <mxCell id="v9Kh4LZxZywpgh_0QBF9-20" value="&lt;font size=&quot;3&quot;&gt;switch/case문&lt;br&gt;&lt;br&gt;조건문 중에 하나이다&lt;br&gt;&lt;/font&gt;" style="rounded=1;whiteSpace=wrap;html=1;" vertex="1" parent="1">
          <mxGeometry x="600" y="260" width="210" height="130" as="geometry" />
        </mxCell>
        <mxCell id="v9Kh4LZxZywpgh_0QBF9-21" value="&lt;font size=&quot;3&quot;&gt;for 문&lt;/font&gt;" style="rounded=1;whiteSpace=wrap;html=1;" vertex="1" parent="1">
          <mxGeometry x="195" y="400" width="120" height="60" as="geometry" />
        </mxCell>
        <mxCell id="v9Kh4LZxZywpgh_0QBF9-33" style="edgeStyle=orthogonalEdgeStyle;rounded=0;orthogonalLoop=1;jettySize=auto;html=1;exitX=0.5;exitY=1;exitDx=0;exitDy=0;entryX=0.5;entryY=0;entryDx=0;entryDy=0;" edge="1" parent="1" source="v9Kh4LZxZywpgh_0QBF9-22" target="v9Kh4LZxZywpgh_0QBF9-28">
          <mxGeometry relative="1" as="geometry" />
        </mxCell>
        <mxCell id="v9Kh4LZxZywpgh_0QBF9-22" value="&lt;font size=&quot;3&quot;&gt;int i = 0;&lt;/font&gt;" style="rounded=1;whiteSpace=wrap;html=1;" vertex="1" parent="1">
          <mxGeometry x="130" y="770" width="120" height="60" as="geometry" />
        </mxCell>
        <mxCell id="v9Kh4LZxZywpgh_0QBF9-23" value="&lt;font size=&quot;3&quot;&gt;for(&lt;/font&gt;" style="rounded=1;whiteSpace=wrap;html=1;" vertex="1" parent="1">
          <mxGeometry y="770" width="120" height="60" as="geometry" />
        </mxCell>
        <mxCell id="v9Kh4LZxZywpgh_0QBF9-32" style="edgeStyle=orthogonalEdgeStyle;rounded=0;orthogonalLoop=1;jettySize=auto;html=1;exitX=0.5;exitY=1;exitDx=0;exitDy=0;" edge="1" parent="1" source="v9Kh4LZxZywpgh_0QBF9-24" target="v9Kh4LZxZywpgh_0QBF9-29">
          <mxGeometry relative="1" as="geometry" />
        </mxCell>
        <mxCell id="v9Kh4LZxZywpgh_0QBF9-24" value="&lt;font size=&quot;3&quot;&gt;i &amp;lt;= 5;&lt;/font&gt;" style="rounded=1;whiteSpace=wrap;html=1;" vertex="1" parent="1">
          <mxGeometry x="260" y="770" width="120" height="60" as="geometry" />
        </mxCell>
        <mxCell id="v9Kh4LZxZywpgh_0QBF9-31" style="edgeStyle=orthogonalEdgeStyle;rounded=0;orthogonalLoop=1;jettySize=auto;html=1;exitX=0.5;exitY=1;exitDx=0;exitDy=0;" edge="1" parent="1" source="v9Kh4LZxZywpgh_0QBF9-25" target="v9Kh4LZxZywpgh_0QBF9-30">
          <mxGeometry relative="1" as="geometry" />
        </mxCell>
        <mxCell id="v9Kh4LZxZywpgh_0QBF9-25" value="&lt;font size=&quot;3&quot;&gt;i += 1)&lt;/font&gt;" style="rounded=1;whiteSpace=wrap;html=1;" vertex="1" parent="1">
          <mxGeometry x="390" y="770" width="120" height="60" as="geometry" />
        </mxCell>
        <mxCell id="v9Kh4LZxZywpgh_0QBF9-26" value="&lt;div style=&quot;text-align: left;&quot;&gt;&lt;span style=&quot;font-size: medium; background-color: initial;&quot;&gt;{&lt;/span&gt;&lt;/div&gt;&lt;font size=&quot;3&quot;&gt;&lt;div style=&quot;text-align: left;&quot;&gt;&lt;span style=&quot;background-color: initial; white-space: pre;&quot;&gt;&#x9;&lt;/span&gt;&lt;span style=&quot;background-color: initial;&quot;&gt;//반복할 내용&lt;/span&gt;&lt;/div&gt;&lt;div style=&quot;text-align: left;&quot;&gt;&lt;span style=&quot;background-color: initial;&quot;&gt;}&lt;/span&gt;&lt;/div&gt;&lt;/font&gt;" style="rounded=1;whiteSpace=wrap;html=1;" vertex="1" parent="1">
          <mxGeometry y="950" width="510" height="60" as="geometry" />
        </mxCell>
        <mxCell id="v9Kh4LZxZywpgh_0QBF9-28" value="&lt;font size=&quot;3&quot;&gt;초기값&lt;/font&gt;" style="rounded=1;whiteSpace=wrap;html=1;" vertex="1" parent="1">
          <mxGeometry x="130" y="860" width="120" height="60" as="geometry" />
        </mxCell>
        <mxCell id="v9Kh4LZxZywpgh_0QBF9-29" value="&lt;font size=&quot;3&quot;&gt;조건식&lt;/font&gt;" style="rounded=1;whiteSpace=wrap;html=1;" vertex="1" parent="1">
          <mxGeometry x="260" y="860" width="120" height="60" as="geometry" />
        </mxCell>
        <mxCell id="v9Kh4LZxZywpgh_0QBF9-30" value="&lt;font size=&quot;3&quot;&gt;증감식&lt;/font&gt;" style="rounded=1;whiteSpace=wrap;html=1;" vertex="1" parent="1">
          <mxGeometry x="390" y="860" width="120" height="60" as="geometry" />
        </mxCell>
        <mxCell id="v9Kh4LZxZywpgh_0QBF9-34" value="&lt;font size=&quot;3&quot;&gt;1&lt;/font&gt;" style="rounded=1;whiteSpace=wrap;html=1;" vertex="1" parent="1">
          <mxGeometry x="165" y="710" width="50" height="40" as="geometry" />
        </mxCell>
        <mxCell id="v9Kh4LZxZywpgh_0QBF9-38" value="&lt;font size=&quot;3&quot;&gt;4&lt;/font&gt;" style="rounded=1;whiteSpace=wrap;html=1;" vertex="1" parent="1">
          <mxGeometry x="400" y="710" width="50" height="40" as="geometry" />
        </mxCell>
        <mxCell id="v9Kh4LZxZywpgh_0QBF9-39" value="&lt;font size=&quot;3&quot;&gt;3&lt;/font&gt;" style="rounded=1;whiteSpace=wrap;html=1;" vertex="1" parent="1">
          <mxGeometry x="10" y="900" width="50" height="40" as="geometry" />
        </mxCell>
        <mxCell id="v9Kh4LZxZywpgh_0QBF9-40" value="&lt;font size=&quot;3&quot;&gt;2&lt;/font&gt;" style="rounded=1;whiteSpace=wrap;html=1;" vertex="1" parent="1">
          <mxGeometry x="270" y="710" width="50" height="40" as="geometry" />
        </mxCell>
        <mxCell id="v9Kh4LZxZywpgh_0QBF9-41" value="&lt;font size=&quot;3&quot;&gt;5&lt;/font&gt;" style="rounded=1;whiteSpace=wrap;html=1;" vertex="1" parent="1">
          <mxGeometry x="320" y="710" width="50" height="40" as="geometry" />
        </mxCell>
        <mxCell id="v9Kh4LZxZywpgh_0QBF9-42" value="&lt;font size=&quot;3&quot;&gt;6&lt;/font&gt;" style="rounded=1;whiteSpace=wrap;html=1;" vertex="1" parent="1">
          <mxGeometry x="60" y="900" width="50" height="40" as="geometry" />
        </mxCell>
        <mxCell id="v9Kh4LZxZywpgh_0QBF9-43" value="&lt;font size=&quot;3&quot;&gt;7...&lt;/font&gt;" style="rounded=1;whiteSpace=wrap;html=1;" vertex="1" parent="1">
          <mxGeometry x="450" y="710" width="50" height="40" as="geometry" />
        </mxCell>
        <mxCell id="v9Kh4LZxZywpgh_0QBF9-45" value="&lt;font size=&quot;3&quot;&gt;초기 값을 포문 밖에서 지정해주면&lt;br&gt;초기 값 자리가 비어도 사용가능&lt;/font&gt;" style="rounded=1;whiteSpace=wrap;html=1;" vertex="1" parent="1">
          <mxGeometry x="20" y="1030" width="260" height="70" as="geometry" />
        </mxCell>
        <mxCell id="v9Kh4LZxZywpgh_0QBF9-46" value="&lt;font size=&quot;3&quot;&gt;지역 변수&lt;/font&gt;" style="rounded=1;whiteSpace=wrap;html=1;" vertex="1" parent="1">
          <mxGeometry x="480" y="400" width="120" height="60" as="geometry" />
        </mxCell>
        <mxCell id="v9Kh4LZxZywpgh_0QBF9-47" value="&lt;font size=&quot;3&quot;&gt;스코프 범위 내에서만&lt;br&gt;사용가능한 변수&lt;br&gt;&lt;/font&gt;" style="rounded=1;whiteSpace=wrap;html=1;" vertex="1" parent="1">
          <mxGeometry x="450" y="480" width="170" height="70" as="geometry" />
        </mxCell>
        <mxCell id="v9Kh4LZxZywpgh_0QBF9-48" value="&lt;font size=&quot;3&quot;&gt;전역 변수&lt;/font&gt;" style="rounded=1;whiteSpace=wrap;html=1;" vertex="1" parent="1">
          <mxGeometry x="665" y="400" width="120" height="60" as="geometry" />
        </mxCell>
        <mxCell id="v9Kh4LZxZywpgh_0QBF9-49" value="&lt;font size=&quot;3&quot;&gt;스코프 범위 내에서만&lt;br&gt;사용가능한 변수&lt;br&gt;&lt;/font&gt;" style="rounded=1;whiteSpace=wrap;html=1;" vertex="1" parent="1">
          <mxGeometry x="640" y="480" width="170" height="70" as="geometry" />
        </mxCell>
        <mxCell id="v9Kh4LZxZywpgh_0QBF9-51" value="&lt;font size=&quot;3&quot;&gt;헤더파일&lt;br&gt;새로운 형태: 파스칼 스타일&lt;/font&gt;" style="rounded=1;whiteSpace=wrap;html=1;" vertex="1" parent="1">
          <mxGeometry x="550" y="620" width="210" height="80" as="geometry" />
        </mxCell>
        <mxCell id="v9Kh4LZxZywpgh_0QBF9-52" value="&lt;font size=&quot;3&quot;&gt;헤더파일&lt;br&gt;이전 형태: 헝가리안 스타일&lt;/font&gt;" style="rounded=1;whiteSpace=wrap;html=1;" vertex="1" parent="1">
          <mxGeometry x="550" y="720" width="210" height="80" as="geometry" />
        </mxCell>
        <mxCell id="v9Kh4LZxZywpgh_0QBF9-53" value="&lt;font size=&quot;3&quot;&gt;주말 과제&lt;/font&gt;" style="rounded=1;whiteSpace=wrap;html=1;" vertex="1" parent="1">
          <mxGeometry x="595" y="860" width="120" height="60" as="geometry" />
        </mxCell>
        <mxCell id="v9Kh4LZxZywpgh_0QBF9-54" value="&lt;font size=&quot;3&quot;&gt;힙메모리란?/&lt;br&gt;왜 알아야하는가?/&lt;br&gt;전역변수와 어떤 관계인가?/&lt;br&gt;전역변수란 무엇인지?&lt;br&gt;&lt;/font&gt;" style="rounded=1;whiteSpace=wrap;html=1;" vertex="1" parent="1">
          <mxGeometry x="547.5" y="930" width="215" height="150" as="geometry" />
        </mxCell>
      </root>
    </mxGraphModel>
  </diagram>
</mxfile>
